<mxfile host="app.diagrams.net" modified="2024-04-07T19:02:13.759Z" agent="Mozilla/5.0 (Windows NT 10.0; Win64; x64) AppleWebKit/537.36 (KHTML, like Gecko) Chrome/123.0.0.0 Safari/537.36" etag="af_ST42CFBxeubziyZ9b" version="24.2.2" type="device">
  <diagram name="Страница — 1" id="NIEix_2eRefCxbuhjuAI">
    <mxGraphModel dx="1235" dy="665" grid="1" gridSize="10" guides="1" tooltips="1" connect="1" arrows="1" fold="1" page="0" pageScale="1" pageWidth="827" pageHeight="1169" math="0" shadow="0">
      <root>
        <mxCell id="0" />
        <mxCell id="1" parent="0" />
        <mxCell id="HSKEiskq7TPcoVnGIEx2-1" value="Начало" style="ellipse;whiteSpace=wrap;html=1;" parent="1" vertex="1">
          <mxGeometry x="110" y="90" width="140" height="50" as="geometry" />
        </mxCell>
        <mxCell id="HSKEiskq7TPcoVnGIEx2-3" value="&lt;font style=&quot;font-size: 21px;&quot;&gt;РЛС&lt;/font&gt;" style="text;html=1;align=center;verticalAlign=middle;whiteSpace=wrap;rounded=0;" parent="1" vertex="1">
          <mxGeometry x="150" y="40" width="60" height="30" as="geometry" />
        </mxCell>
        <mxCell id="HSKEiskq7TPcoVnGIEx2-4" value="Запущен ли уже скрипт?" style="rhombus;whiteSpace=wrap;html=1;" parent="1" vertex="1">
          <mxGeometry x="50" y="160" width="260" height="60" as="geometry" />
        </mxCell>
        <mxCell id="HSKEiskq7TPcoVnGIEx2-5" value="" style="endArrow=none;html=1;rounded=0;exitX=0.5;exitY=0;exitDx=0;exitDy=0;" parent="1" source="HSKEiskq7TPcoVnGIEx2-4" edge="1">
          <mxGeometry width="50" height="50" relative="1" as="geometry">
            <mxPoint x="130" y="190" as="sourcePoint" />
            <mxPoint x="180" y="140" as="targetPoint" />
          </mxGeometry>
        </mxCell>
        <mxCell id="HSKEiskq7TPcoVnGIEx2-9" value="Директория с целями существует?" style="rhombus;whiteSpace=wrap;html=1;" parent="1" vertex="1">
          <mxGeometry x="50" y="240" width="260" height="60" as="geometry" />
        </mxCell>
        <mxCell id="HSKEiskq7TPcoVnGIEx2-10" value="" style="endArrow=none;html=1;rounded=0;exitX=0.5;exitY=0;exitDx=0;exitDy=0;" parent="1" source="HSKEiskq7TPcoVnGIEx2-19" edge="1">
          <mxGeometry width="50" height="50" relative="1" as="geometry">
            <mxPoint x="180" y="320" as="sourcePoint" />
            <mxPoint x="180" y="300" as="targetPoint" />
          </mxGeometry>
        </mxCell>
        <mxCell id="HSKEiskq7TPcoVnGIEx2-11" value="Да" style="text;html=1;align=center;verticalAlign=middle;whiteSpace=wrap;rounded=0;" parent="1" vertex="1">
          <mxGeometry x="170" y="290" width="60" height="30" as="geometry" />
        </mxCell>
        <mxCell id="HSKEiskq7TPcoVnGIEx2-15" value="Да" style="text;html=1;align=center;verticalAlign=middle;whiteSpace=wrap;rounded=0;" parent="1" vertex="1">
          <mxGeometry x="280" y="160" width="60" height="30" as="geometry" />
        </mxCell>
        <mxCell id="HSKEiskq7TPcoVnGIEx2-19" value="пока true" style="rhombus;whiteSpace=wrap;html=1;" parent="1" vertex="1">
          <mxGeometry x="50" y="330" width="260" height="60" as="geometry" />
        </mxCell>
        <mxCell id="HSKEiskq7TPcoVnGIEx2-22" value="" style="endArrow=none;html=1;rounded=0;exitX=0.5;exitY=0;exitDx=0;exitDy=0;" parent="1" edge="1">
          <mxGeometry width="50" height="50" relative="1" as="geometry">
            <mxPoint x="180" y="420" as="sourcePoint" />
            <mxPoint x="180" y="390" as="targetPoint" />
          </mxGeometry>
        </mxCell>
        <mxCell id="HSKEiskq7TPcoVnGIEx2-23" value="Да" style="text;html=1;align=center;verticalAlign=middle;whiteSpace=wrap;rounded=0;" parent="1" vertex="1">
          <mxGeometry x="170" y="380" width="60" height="30" as="geometry" />
        </mxCell>
        <mxCell id="HSKEiskq7TPcoVnGIEx2-24" value="Берём последние 30 файлов из папки целей" style="rounded=0;whiteSpace=wrap;html=1;" parent="1" vertex="1">
          <mxGeometry x="105" y="410" width="150" height="40" as="geometry" />
        </mxCell>
        <mxCell id="HSKEiskq7TPcoVnGIEx2-25" value="" style="endArrow=none;html=1;rounded=0;" parent="1" edge="1">
          <mxGeometry width="50" height="50" relative="1" as="geometry">
            <mxPoint x="180" y="470" as="sourcePoint" />
            <mxPoint x="180" y="450" as="targetPoint" />
          </mxGeometry>
        </mxCell>
        <mxCell id="HSKEiskq7TPcoVnGIEx2-26" value="Для каждого файла из 30" style="shape=hexagon;perimeter=hexagonPerimeter2;whiteSpace=wrap;html=1;fixedSize=1;" parent="1" vertex="1">
          <mxGeometry x="100" y="470" width="160" height="60" as="geometry" />
        </mxCell>
        <mxCell id="HSKEiskq7TPcoVnGIEx2-27" value="Определяем id и координаты" style="rounded=0;whiteSpace=wrap;html=1;" parent="1" vertex="1">
          <mxGeometry x="120" y="550" width="120" height="40" as="geometry" />
        </mxCell>
        <mxCell id="HSKEiskq7TPcoVnGIEx2-28" value="" style="endArrow=none;html=1;rounded=0;exitX=0.5;exitY=0;exitDx=0;exitDy=0;" parent="1" source="HSKEiskq7TPcoVnGIEx2-27" edge="1">
          <mxGeometry width="50" height="50" relative="1" as="geometry">
            <mxPoint x="130" y="580" as="sourcePoint" />
            <mxPoint x="180" y="530" as="targetPoint" />
          </mxGeometry>
        </mxCell>
        <mxCell id="HSKEiskq7TPcoVnGIEx2-29" value="" style="endArrow=none;html=1;rounded=0;" parent="1" edge="1">
          <mxGeometry width="50" height="50" relative="1" as="geometry">
            <mxPoint x="180" y="610" as="sourcePoint" />
            <mxPoint x="180" y="590" as="targetPoint" />
          </mxGeometry>
        </mxCell>
        <mxCell id="HSKEiskq7TPcoVnGIEx2-30" value="Цель в секторе?" style="rhombus;whiteSpace=wrap;html=1;" parent="1" vertex="1">
          <mxGeometry x="50" y="610" width="260" height="60" as="geometry" />
        </mxCell>
        <mxCell id="HSKEiskq7TPcoVnGIEx2-31" value="" style="endArrow=none;html=1;rounded=0;" parent="1" edge="1">
          <mxGeometry width="50" height="50" relative="1" as="geometry">
            <mxPoint x="310" y="640" as="sourcePoint" />
            <mxPoint x="500" y="640" as="targetPoint" />
          </mxGeometry>
        </mxCell>
        <mxCell id="HSKEiskq7TPcoVnGIEx2-32" value="" style="endArrow=none;html=1;rounded=0;" parent="1" edge="1">
          <mxGeometry width="50" height="50" relative="1" as="geometry">
            <mxPoint x="180" y="690" as="sourcePoint" />
            <mxPoint x="180" y="670" as="targetPoint" />
          </mxGeometry>
        </mxCell>
        <mxCell id="HSKEiskq7TPcoVnGIEx2-33" value="Да" style="text;html=1;align=center;verticalAlign=middle;whiteSpace=wrap;rounded=0;" parent="1" vertex="1">
          <mxGeometry x="170" y="660" width="60" height="30" as="geometry" />
        </mxCell>
        <mxCell id="HSKEiskq7TPcoVnGIEx2-36" value="Цель не записана в файле&amp;nbsp;&lt;div&gt;confirmed_targets?&lt;/div&gt;" style="rhombus;whiteSpace=wrap;html=1;" parent="1" vertex="1">
          <mxGeometry x="50" y="690" width="260" height="60" as="geometry" />
        </mxCell>
        <mxCell id="HSKEiskq7TPcoVnGIEx2-37" value="" style="endArrow=none;html=1;rounded=0;" parent="1" edge="1">
          <mxGeometry width="50" height="50" relative="1" as="geometry">
            <mxPoint x="180" y="770" as="sourcePoint" />
            <mxPoint x="180" y="750" as="targetPoint" />
          </mxGeometry>
        </mxCell>
        <mxCell id="HSKEiskq7TPcoVnGIEx2-38" value="Да(не записана)" style="text;html=1;align=center;verticalAlign=middle;whiteSpace=wrap;rounded=0;" parent="1" vertex="1">
          <mxGeometry x="160" y="740" width="150" height="30" as="geometry" />
        </mxCell>
        <mxCell id="HSKEiskq7TPcoVnGIEx2-41" value="" style="endArrow=none;html=1;rounded=0;" parent="1" edge="1">
          <mxGeometry width="50" height="50" relative="1" as="geometry">
            <mxPoint x="310" y="720" as="sourcePoint" />
            <mxPoint x="500" y="720" as="targetPoint" />
          </mxGeometry>
        </mxCell>
        <mxCell id="HSKEiskq7TPcoVnGIEx2-42" value="Цель записана в файле&amp;nbsp;&lt;div&gt;detected_targets?&lt;/div&gt;" style="rhombus;whiteSpace=wrap;html=1;" parent="1" vertex="1">
          <mxGeometry x="50" y="770" width="260" height="60" as="geometry" />
        </mxCell>
        <mxCell id="HSKEiskq7TPcoVnGIEx2-43" value="" style="endArrow=none;html=1;rounded=0;" parent="1" edge="1">
          <mxGeometry width="50" height="50" relative="1" as="geometry">
            <mxPoint x="180" y="850" as="sourcePoint" />
            <mxPoint x="180" y="830" as="targetPoint" />
          </mxGeometry>
        </mxCell>
        <mxCell id="HSKEiskq7TPcoVnGIEx2-44" value="Да" style="text;html=1;align=center;verticalAlign=middle;whiteSpace=wrap;rounded=0;" parent="1" vertex="1">
          <mxGeometry x="170" y="820" width="60" height="30" as="geometry" />
        </mxCell>
        <mxCell id="HSKEiskq7TPcoVnGIEx2-46" value="Читаем координаты из detected_targets" style="rounded=0;whiteSpace=wrap;html=1;" parent="1" vertex="1">
          <mxGeometry x="120" y="850" width="120" height="40" as="geometry" />
        </mxCell>
        <mxCell id="HSKEiskq7TPcoVnGIEx2-47" value="" style="endArrow=none;html=1;rounded=0;" parent="1" edge="1">
          <mxGeometry width="50" height="50" relative="1" as="geometry">
            <mxPoint x="180" y="910" as="sourcePoint" />
            <mxPoint x="180" y="890" as="targetPoint" />
          </mxGeometry>
        </mxCell>
        <mxCell id="HSKEiskq7TPcoVnGIEx2-48" value="новые координаты&amp;nbsp;&lt;span style=&quot;background-color: initial;&quot;&gt;совпадают&lt;/span&gt;&lt;div&gt;&lt;div&gt;с предыдущими?&lt;/div&gt;&lt;/div&gt;" style="rhombus;whiteSpace=wrap;html=1;" parent="1" vertex="1">
          <mxGeometry x="50" y="910" width="260" height="60" as="geometry" />
        </mxCell>
        <mxCell id="HSKEiskq7TPcoVnGIEx2-49" value="" style="endArrow=none;html=1;rounded=0;" parent="1" edge="1">
          <mxGeometry width="50" height="50" relative="1" as="geometry">
            <mxPoint x="180" y="1040" as="sourcePoint" />
            <mxPoint x="180" y="970" as="targetPoint" />
          </mxGeometry>
        </mxCell>
        <mxCell id="HSKEiskq7TPcoVnGIEx2-50" value="Да" style="text;html=1;align=center;verticalAlign=middle;whiteSpace=wrap;rounded=0;" parent="1" vertex="1">
          <mxGeometry x="170" y="960" width="60" height="30" as="geometry" />
        </mxCell>
        <mxCell id="HSKEiskq7TPcoVnGIEx2-51" value="" style="endArrow=none;html=1;rounded=0;" parent="1" source="HSKEiskq7TPcoVnGIEx2-9" edge="1">
          <mxGeometry width="50" height="50" relative="1" as="geometry">
            <mxPoint x="130" y="270" as="sourcePoint" />
            <mxPoint x="180" y="220" as="targetPoint" />
          </mxGeometry>
        </mxCell>
        <mxCell id="HSKEiskq7TPcoVnGIEx2-55" value="" style="endArrow=none;html=1;rounded=0;" parent="1" edge="1">
          <mxGeometry width="50" height="50" relative="1" as="geometry">
            <mxPoint x="310" y="940" as="sourcePoint" />
            <mxPoint x="330" y="940" as="targetPoint" />
          </mxGeometry>
        </mxCell>
        <mxCell id="HSKEiskq7TPcoVnGIEx2-56" value="" style="endArrow=none;html=1;rounded=0;" parent="1" edge="1">
          <mxGeometry width="50" height="50" relative="1" as="geometry">
            <mxPoint x="330" y="980" as="sourcePoint" />
            <mxPoint x="330" y="940" as="targetPoint" />
          </mxGeometry>
        </mxCell>
        <mxCell id="HSKEiskq7TPcoVnGIEx2-58" value="Ищем скорость и определяем, летит ли к спро" style="rounded=0;whiteSpace=wrap;html=1;" parent="1" vertex="1">
          <mxGeometry x="260" y="980" width="126" height="50" as="geometry" />
        </mxCell>
        <mxCell id="HSKEiskq7TPcoVnGIEx2-59" value="Нет" style="text;html=1;align=center;verticalAlign=middle;whiteSpace=wrap;rounded=0;" parent="1" vertex="1">
          <mxGeometry x="280" y="910" width="60" height="30" as="geometry" />
        </mxCell>
        <mxCell id="HSKEiskq7TPcoVnGIEx2-60" value="" style="endArrow=none;html=1;rounded=0;" parent="1" edge="1">
          <mxGeometry width="50" height="50" relative="1" as="geometry">
            <mxPoint x="330" y="1040" as="sourcePoint" />
            <mxPoint x="330" y="1030" as="targetPoint" />
          </mxGeometry>
        </mxCell>
        <mxCell id="HSKEiskq7TPcoVnGIEx2-61" value="" style="endArrow=none;html=1;rounded=0;" parent="1" edge="1">
          <mxGeometry width="50" height="50" relative="1" as="geometry">
            <mxPoint x="180" y="1040" as="sourcePoint" />
            <mxPoint x="330" y="1040" as="targetPoint" />
          </mxGeometry>
        </mxCell>
        <mxCell id="HSKEiskq7TPcoVnGIEx2-62" value="" style="endArrow=none;html=1;rounded=0;" parent="1" edge="1">
          <mxGeometry width="50" height="50" relative="1" as="geometry">
            <mxPoint x="180" y="1060" as="sourcePoint" />
            <mxPoint x="180" y="1040" as="targetPoint" />
          </mxGeometry>
        </mxCell>
        <mxCell id="HSKEiskq7TPcoVnGIEx2-63" value="Существует ли скорость и&amp;nbsp;&lt;div&gt;не&lt;span style=&quot;background-color: initial;&quot;&gt;&amp;nbsp;равна ли она нулю&lt;/span&gt;&lt;/div&gt;" style="rhombus;whiteSpace=wrap;html=1;" parent="1" vertex="1">
          <mxGeometry x="50" y="1060" width="260" height="60" as="geometry" />
        </mxCell>
        <mxCell id="HSKEiskq7TPcoVnGIEx2-64" value="" style="endArrow=none;html=1;rounded=0;" parent="1" edge="1">
          <mxGeometry width="50" height="50" relative="1" as="geometry">
            <mxPoint x="180" y="1140" as="sourcePoint" />
            <mxPoint x="180" y="1120" as="targetPoint" />
          </mxGeometry>
        </mxCell>
        <mxCell id="HSKEiskq7TPcoVnGIEx2-65" value="Да" style="text;html=1;align=center;verticalAlign=middle;whiteSpace=wrap;rounded=0;" parent="1" vertex="1">
          <mxGeometry x="174" y="1110" width="60" height="30" as="geometry" />
        </mxCell>
        <mxCell id="HSKEiskq7TPcoVnGIEx2-66" value="Выдаём всю информацию о цели на кп&amp;nbsp;" style="rounded=0;whiteSpace=wrap;html=1;" parent="1" vertex="1">
          <mxGeometry x="117" y="1140" width="126" height="50" as="geometry" />
        </mxCell>
        <mxCell id="HSKEiskq7TPcoVnGIEx2-68" value="" style="endArrow=none;html=1;rounded=0;" parent="1" edge="1">
          <mxGeometry width="50" height="50" relative="1" as="geometry">
            <mxPoint x="310" y="1090" as="sourcePoint" />
            <mxPoint x="330" y="1090" as="targetPoint" />
          </mxGeometry>
        </mxCell>
        <mxCell id="HSKEiskq7TPcoVnGIEx2-69" value="" style="endArrow=none;html=1;rounded=0;" parent="1" edge="1">
          <mxGeometry width="50" height="50" relative="1" as="geometry">
            <mxPoint x="330" y="1200" as="sourcePoint" />
            <mxPoint x="330" y="1090" as="targetPoint" />
          </mxGeometry>
        </mxCell>
        <mxCell id="HSKEiskq7TPcoVnGIEx2-70" value="Нет" style="text;html=1;align=center;verticalAlign=middle;whiteSpace=wrap;rounded=0;" parent="1" vertex="1">
          <mxGeometry x="280" y="1060" width="60" height="30" as="geometry" />
        </mxCell>
        <mxCell id="HSKEiskq7TPcoVnGIEx2-71" value="" style="endArrow=none;html=1;rounded=0;" parent="1" edge="1">
          <mxGeometry width="50" height="50" relative="1" as="geometry">
            <mxPoint x="180" y="1199" as="sourcePoint" />
            <mxPoint x="500" y="1199" as="targetPoint" />
          </mxGeometry>
        </mxCell>
        <mxCell id="HSKEiskq7TPcoVnGIEx2-72" value="" style="endArrow=none;html=1;rounded=0;" parent="1" edge="1">
          <mxGeometry width="50" height="50" relative="1" as="geometry">
            <mxPoint x="180" y="1200" as="sourcePoint" />
            <mxPoint x="180" y="1190" as="targetPoint" />
          </mxGeometry>
        </mxCell>
        <mxCell id="HSKEiskq7TPcoVnGIEx2-73" value="" style="endArrow=none;html=1;rounded=0;" parent="1" edge="1">
          <mxGeometry width="50" height="50" relative="1" as="geometry">
            <mxPoint x="310" y="800" as="sourcePoint" />
            <mxPoint x="420" y="800" as="targetPoint" />
          </mxGeometry>
        </mxCell>
        <mxCell id="HSKEiskq7TPcoVnGIEx2-74" value="Нет" style="text;html=1;align=center;verticalAlign=middle;whiteSpace=wrap;rounded=0;" parent="1" vertex="1">
          <mxGeometry x="280" y="770" width="60" height="30" as="geometry" />
        </mxCell>
        <mxCell id="HSKEiskq7TPcoVnGIEx2-75" value="Записываем цель в detected_targets" style="rounded=0;whiteSpace=wrap;html=1;" parent="1" vertex="1">
          <mxGeometry x="360" y="820" width="126" height="50" as="geometry" />
        </mxCell>
        <mxCell id="HSKEiskq7TPcoVnGIEx2-76" value="" style="endArrow=none;html=1;rounded=0;exitX=0.478;exitY=-0.006;exitDx=0;exitDy=0;exitPerimeter=0;" parent="1" source="HSKEiskq7TPcoVnGIEx2-75" edge="1">
          <mxGeometry width="50" height="50" relative="1" as="geometry">
            <mxPoint x="370" y="850" as="sourcePoint" />
            <mxPoint x="420" y="800" as="targetPoint" />
          </mxGeometry>
        </mxCell>
        <mxCell id="HSKEiskq7TPcoVnGIEx2-77" value="" style="endArrow=none;html=1;rounded=0;" parent="1" edge="1">
          <mxGeometry width="50" height="50" relative="1" as="geometry">
            <mxPoint x="420" y="1200" as="sourcePoint" />
            <mxPoint x="420" y="870" as="targetPoint" />
          </mxGeometry>
        </mxCell>
        <mxCell id="HSKEiskq7TPcoVnGIEx2-79" value="Нет(записана)" style="text;html=1;align=center;verticalAlign=middle;whiteSpace=wrap;rounded=0;" parent="1" vertex="1">
          <mxGeometry x="293" y="690" width="60" height="30" as="geometry" />
        </mxCell>
        <mxCell id="HSKEiskq7TPcoVnGIEx2-80" value="Нет" style="text;html=1;align=center;verticalAlign=middle;whiteSpace=wrap;rounded=0;" parent="1" vertex="1">
          <mxGeometry x="280" y="610" width="60" height="30" as="geometry" />
        </mxCell>
        <mxCell id="HSKEiskq7TPcoVnGIEx2-81" value="" style="endArrow=none;html=1;rounded=0;" parent="1" edge="1">
          <mxGeometry width="50" height="50" relative="1" as="geometry">
            <mxPoint x="500" y="1200" as="sourcePoint" />
            <mxPoint x="500" y="640" as="targetPoint" />
          </mxGeometry>
        </mxCell>
        <mxCell id="HSKEiskq7TPcoVnGIEx2-82" value="" style="endArrow=none;html=1;rounded=0;" parent="1" edge="1">
          <mxGeometry width="50" height="50" relative="1" as="geometry">
            <mxPoint x="40" y="1200" as="sourcePoint" />
            <mxPoint x="180" y="1199" as="targetPoint" />
          </mxGeometry>
        </mxCell>
        <mxCell id="HSKEiskq7TPcoVnGIEx2-84" value="" style="endArrow=none;html=1;rounded=0;" parent="1" edge="1">
          <mxGeometry width="50" height="50" relative="1" as="geometry">
            <mxPoint x="40" y="1200" as="sourcePoint" />
            <mxPoint x="40" y="500" as="targetPoint" />
          </mxGeometry>
        </mxCell>
        <mxCell id="HSKEiskq7TPcoVnGIEx2-85" value="" style="endArrow=classic;html=1;rounded=0;entryX=0;entryY=0.5;entryDx=0;entryDy=0;" parent="1" target="HSKEiskq7TPcoVnGIEx2-26" edge="1">
          <mxGeometry width="50" height="50" relative="1" as="geometry">
            <mxPoint x="40" y="500" as="sourcePoint" />
            <mxPoint x="90" y="450" as="targetPoint" />
          </mxGeometry>
        </mxCell>
        <mxCell id="HSKEiskq7TPcoVnGIEx2-86" value="" style="endArrow=none;html=1;rounded=0;" parent="1" edge="1">
          <mxGeometry width="50" height="50" relative="1" as="geometry">
            <mxPoint x="260" y="500" as="sourcePoint" />
            <mxPoint x="510" y="500" as="targetPoint" />
          </mxGeometry>
        </mxCell>
        <mxCell id="HSKEiskq7TPcoVnGIEx2-87" value="" style="endArrow=none;html=1;rounded=0;" parent="1" edge="1">
          <mxGeometry width="50" height="50" relative="1" as="geometry">
            <mxPoint x="510" y="1220" as="sourcePoint" />
            <mxPoint x="510" y="500" as="targetPoint" />
          </mxGeometry>
        </mxCell>
        <mxCell id="HSKEiskq7TPcoVnGIEx2-88" value="" style="endArrow=none;html=1;rounded=0;" parent="1" edge="1">
          <mxGeometry width="50" height="50" relative="1" as="geometry">
            <mxPoint x="270" y="1220" as="sourcePoint" />
            <mxPoint x="510" y="1220" as="targetPoint" />
          </mxGeometry>
        </mxCell>
        <mxCell id="HSKEiskq7TPcoVnGIEx2-89" value="" style="endArrow=none;html=1;rounded=0;" parent="1" edge="1">
          <mxGeometry width="50" height="50" relative="1" as="geometry">
            <mxPoint x="270" y="1240" as="sourcePoint" />
            <mxPoint x="270" y="1220" as="targetPoint" />
          </mxGeometry>
        </mxCell>
        <mxCell id="HSKEiskq7TPcoVnGIEx2-90" value="Есть ли файл hello.log?" style="rhombus;whiteSpace=wrap;html=1;" parent="1" vertex="1">
          <mxGeometry x="140" y="1240" width="260" height="60" as="geometry" />
        </mxCell>
        <mxCell id="HSKEiskq7TPcoVnGIEx2-91" value="" style="endArrow=none;html=1;rounded=0;" parent="1" edge="1">
          <mxGeometry width="50" height="50" relative="1" as="geometry">
            <mxPoint x="270" y="1320" as="sourcePoint" />
            <mxPoint x="270" y="1300" as="targetPoint" />
          </mxGeometry>
        </mxCell>
        <mxCell id="HSKEiskq7TPcoVnGIEx2-92" value="Да" style="text;html=1;align=center;verticalAlign=middle;whiteSpace=wrap;rounded=0;" parent="1" vertex="1">
          <mxGeometry x="255" y="1290" width="60" height="30" as="geometry" />
        </mxCell>
        <mxCell id="HSKEiskq7TPcoVnGIEx2-94" value="Отправляем ответ на КП" style="rounded=0;whiteSpace=wrap;html=1;" parent="1" vertex="1">
          <mxGeometry x="207" y="1320" width="126" height="50" as="geometry" />
        </mxCell>
        <mxCell id="HSKEiskq7TPcoVnGIEx2-95" value="" style="endArrow=none;html=1;rounded=0;" parent="1" edge="1">
          <mxGeometry width="50" height="50" relative="1" as="geometry">
            <mxPoint x="400" y="1270" as="sourcePoint" />
            <mxPoint x="420" y="1270" as="targetPoint" />
          </mxGeometry>
        </mxCell>
        <mxCell id="HSKEiskq7TPcoVnGIEx2-96" value="" style="endArrow=none;html=1;rounded=0;" parent="1" edge="1">
          <mxGeometry width="50" height="50" relative="1" as="geometry">
            <mxPoint x="420" y="1380" as="sourcePoint" />
            <mxPoint x="420" y="1270" as="targetPoint" />
          </mxGeometry>
        </mxCell>
        <mxCell id="HSKEiskq7TPcoVnGIEx2-97" value="Нет" style="text;html=1;align=center;verticalAlign=middle;whiteSpace=wrap;rounded=0;" parent="1" vertex="1">
          <mxGeometry x="370" y="1240" width="60" height="30" as="geometry" />
        </mxCell>
        <mxCell id="HSKEiskq7TPcoVnGIEx2-98" value="" style="endArrow=none;html=1;rounded=0;" parent="1" edge="1">
          <mxGeometry width="50" height="50" relative="1" as="geometry">
            <mxPoint x="20" y="1380" as="sourcePoint" />
            <mxPoint x="420" y="1380" as="targetPoint" />
          </mxGeometry>
        </mxCell>
        <mxCell id="HSKEiskq7TPcoVnGIEx2-99" value="" style="endArrow=none;html=1;rounded=0;" parent="1" edge="1">
          <mxGeometry width="50" height="50" relative="1" as="geometry">
            <mxPoint x="270" y="1380" as="sourcePoint" />
            <mxPoint x="270" y="1370" as="targetPoint" />
          </mxGeometry>
        </mxCell>
        <mxCell id="HSKEiskq7TPcoVnGIEx2-100" value="" style="endArrow=none;html=1;rounded=0;" parent="1" edge="1">
          <mxGeometry width="50" height="50" relative="1" as="geometry">
            <mxPoint x="20" y="320" as="sourcePoint" />
            <mxPoint x="20" y="1380" as="targetPoint" />
          </mxGeometry>
        </mxCell>
        <mxCell id="HSKEiskq7TPcoVnGIEx2-101" value="" style="endArrow=classic;html=1;rounded=0;" parent="1" edge="1">
          <mxGeometry width="50" height="50" relative="1" as="geometry">
            <mxPoint x="20" y="320" as="sourcePoint" />
            <mxPoint x="180" y="320" as="targetPoint" />
          </mxGeometry>
        </mxCell>
        <mxCell id="HSKEiskq7TPcoVnGIEx2-104" value="" style="endArrow=none;html=1;rounded=0;" parent="1" edge="1">
          <mxGeometry width="50" height="50" relative="1" as="geometry">
            <mxPoint x="310" y="360" as="sourcePoint" />
            <mxPoint x="520" y="360" as="targetPoint" />
          </mxGeometry>
        </mxCell>
        <mxCell id="HSKEiskq7TPcoVnGIEx2-105" value="" style="endArrow=none;html=1;rounded=0;" parent="1" edge="1">
          <mxGeometry width="50" height="50" relative="1" as="geometry">
            <mxPoint x="309" y="269.29" as="sourcePoint" />
            <mxPoint x="519" y="269.29" as="targetPoint" />
          </mxGeometry>
        </mxCell>
        <mxCell id="HSKEiskq7TPcoVnGIEx2-106" value="" style="endArrow=none;html=1;rounded=0;" parent="1" edge="1">
          <mxGeometry width="50" height="50" relative="1" as="geometry">
            <mxPoint x="309" y="189.29" as="sourcePoint" />
            <mxPoint x="519" y="189.29" as="targetPoint" />
          </mxGeometry>
        </mxCell>
        <mxCell id="HSKEiskq7TPcoVnGIEx2-107" value="" style="endArrow=none;html=1;rounded=0;" parent="1" edge="1">
          <mxGeometry width="50" height="50" relative="1" as="geometry">
            <mxPoint x="520" y="1400" as="sourcePoint" />
            <mxPoint x="520" y="190" as="targetPoint" />
          </mxGeometry>
        </mxCell>
        <mxCell id="HSKEiskq7TPcoVnGIEx2-108" value="" style="endArrow=none;html=1;rounded=0;" parent="1" edge="1">
          <mxGeometry width="50" height="50" relative="1" as="geometry">
            <mxPoint x="270" y="1400" as="sourcePoint" />
            <mxPoint x="520" y="1400" as="targetPoint" />
          </mxGeometry>
        </mxCell>
        <mxCell id="HSKEiskq7TPcoVnGIEx2-109" value="" style="endArrow=none;html=1;rounded=0;" parent="1" edge="1">
          <mxGeometry width="50" height="50" relative="1" as="geometry">
            <mxPoint x="270" y="1420" as="sourcePoint" />
            <mxPoint x="270" y="1400" as="targetPoint" />
          </mxGeometry>
        </mxCell>
        <mxCell id="HSKEiskq7TPcoVnGIEx2-110" value="Конец" style="ellipse;whiteSpace=wrap;html=1;" parent="1" vertex="1">
          <mxGeometry x="200" y="1420" width="140" height="50" as="geometry" />
        </mxCell>
        <mxCell id="HSKEiskq7TPcoVnGIEx2-111" value="Нет" style="text;html=1;align=center;verticalAlign=middle;whiteSpace=wrap;rounded=0;" parent="1" vertex="1">
          <mxGeometry x="280" y="330" width="60" height="30" as="geometry" />
        </mxCell>
        <mxCell id="HSKEiskq7TPcoVnGIEx2-112" value="Нет" style="text;html=1;align=center;verticalAlign=middle;whiteSpace=wrap;rounded=0;" parent="1" vertex="1">
          <mxGeometry x="280" y="240" width="60" height="30" as="geometry" />
        </mxCell>
        <mxCell id="HSKEiskq7TPcoVnGIEx2-113" value="Нет" style="text;html=1;align=center;verticalAlign=middle;whiteSpace=wrap;rounded=0;" parent="1" vertex="1">
          <mxGeometry x="174" y="210" width="60" height="30" as="geometry" />
        </mxCell>
        <mxCell id="YSHtZD45V2EuvyDfiXRb-1" value="&lt;span style=&quot;font-size: 21px;&quot;&gt;СПРО/ЗРДН&lt;/span&gt;" style="text;html=1;align=center;verticalAlign=middle;whiteSpace=wrap;rounded=0;" parent="1" vertex="1">
          <mxGeometry x="830" y="30" width="60" height="30" as="geometry" />
        </mxCell>
        <mxCell id="YSHtZD45V2EuvyDfiXRb-2" value="Начало" style="ellipse;whiteSpace=wrap;html=1;" parent="1" vertex="1">
          <mxGeometry x="790" y="80" width="140" height="50" as="geometry" />
        </mxCell>
        <mxCell id="YSHtZD45V2EuvyDfiXRb-3" value="" style="endArrow=none;html=1;rounded=0;exitX=0.5;exitY=0;exitDx=0;exitDy=0;" parent="1" edge="1">
          <mxGeometry width="50" height="50" relative="1" as="geometry">
            <mxPoint x="860" y="150" as="sourcePoint" />
            <mxPoint x="860" y="130" as="targetPoint" />
          </mxGeometry>
        </mxCell>
        <mxCell id="YSHtZD45V2EuvyDfiXRb-4" value="Запущен ли уже скрипт?" style="rhombus;whiteSpace=wrap;html=1;" parent="1" vertex="1">
          <mxGeometry x="730" y="150" width="260" height="60" as="geometry" />
        </mxCell>
        <mxCell id="YSHtZD45V2EuvyDfiXRb-5" value="" style="endArrow=none;html=1;rounded=0;exitX=0.5;exitY=0;exitDx=0;exitDy=0;" parent="1" source="YSHtZD45V2EuvyDfiXRb-4" edge="1">
          <mxGeometry width="50" height="50" relative="1" as="geometry">
            <mxPoint x="810" y="180" as="sourcePoint" />
            <mxPoint x="860" y="130" as="targetPoint" />
          </mxGeometry>
        </mxCell>
        <mxCell id="YSHtZD45V2EuvyDfiXRb-6" value="Директория с целями существует?" style="rhombus;whiteSpace=wrap;html=1;" parent="1" vertex="1">
          <mxGeometry x="730" y="230" width="260" height="60" as="geometry" />
        </mxCell>
        <mxCell id="YSHtZD45V2EuvyDfiXRb-7" value="" style="endArrow=none;html=1;rounded=0;exitX=0.5;exitY=0;exitDx=0;exitDy=0;" parent="1" source="YSHtZD45V2EuvyDfiXRb-10" edge="1">
          <mxGeometry width="50" height="50" relative="1" as="geometry">
            <mxPoint x="860" y="310" as="sourcePoint" />
            <mxPoint x="860" y="290" as="targetPoint" />
          </mxGeometry>
        </mxCell>
        <mxCell id="YSHtZD45V2EuvyDfiXRb-8" value="Да" style="text;html=1;align=center;verticalAlign=middle;whiteSpace=wrap;rounded=0;" parent="1" vertex="1">
          <mxGeometry x="850" y="280" width="60" height="30" as="geometry" />
        </mxCell>
        <mxCell id="YSHtZD45V2EuvyDfiXRb-9" value="Да" style="text;html=1;align=center;verticalAlign=middle;whiteSpace=wrap;rounded=0;" parent="1" vertex="1">
          <mxGeometry x="963" y="150" width="60" height="30" as="geometry" />
        </mxCell>
        <mxCell id="YSHtZD45V2EuvyDfiXRb-10" value="пока true" style="rhombus;whiteSpace=wrap;html=1;" parent="1" vertex="1">
          <mxGeometry x="730" y="320" width="260" height="60" as="geometry" />
        </mxCell>
        <mxCell id="YSHtZD45V2EuvyDfiXRb-11" value="" style="endArrow=none;html=1;rounded=0;exitX=0.5;exitY=0;exitDx=0;exitDy=0;" parent="1" edge="1">
          <mxGeometry width="50" height="50" relative="1" as="geometry">
            <mxPoint x="860" y="410" as="sourcePoint" />
            <mxPoint x="860" y="380" as="targetPoint" />
          </mxGeometry>
        </mxCell>
        <mxCell id="YSHtZD45V2EuvyDfiXRb-12" value="Да" style="text;html=1;align=center;verticalAlign=middle;whiteSpace=wrap;rounded=0;" parent="1" vertex="1">
          <mxGeometry x="850" y="370" width="60" height="30" as="geometry" />
        </mxCell>
        <mxCell id="YSHtZD45V2EuvyDfiXRb-13" value="Берём последние 30 файлов из папки целей" style="rounded=0;whiteSpace=wrap;html=1;" parent="1" vertex="1">
          <mxGeometry x="785" y="400" width="150" height="40" as="geometry" />
        </mxCell>
        <mxCell id="YSHtZD45V2EuvyDfiXRb-14" value="" style="endArrow=none;html=1;rounded=0;" parent="1" edge="1">
          <mxGeometry width="50" height="50" relative="1" as="geometry">
            <mxPoint x="860" y="460" as="sourcePoint" />
            <mxPoint x="860" y="440" as="targetPoint" />
          </mxGeometry>
        </mxCell>
        <mxCell id="YSHtZD45V2EuvyDfiXRb-15" value="Для каждого файла из 30" style="shape=hexagon;perimeter=hexagonPerimeter2;whiteSpace=wrap;html=1;fixedSize=1;" parent="1" vertex="1">
          <mxGeometry x="780" y="460" width="160" height="60" as="geometry" />
        </mxCell>
        <mxCell id="YSHtZD45V2EuvyDfiXRb-16" value="Определяем id и координаты" style="rounded=0;whiteSpace=wrap;html=1;" parent="1" vertex="1">
          <mxGeometry x="800" y="540" width="120" height="40" as="geometry" />
        </mxCell>
        <mxCell id="YSHtZD45V2EuvyDfiXRb-17" value="" style="endArrow=none;html=1;rounded=0;exitX=0.5;exitY=0;exitDx=0;exitDy=0;" parent="1" source="YSHtZD45V2EuvyDfiXRb-16" edge="1">
          <mxGeometry width="50" height="50" relative="1" as="geometry">
            <mxPoint x="810" y="570" as="sourcePoint" />
            <mxPoint x="860" y="520" as="targetPoint" />
          </mxGeometry>
        </mxCell>
        <mxCell id="YSHtZD45V2EuvyDfiXRb-18" value="" style="endArrow=none;html=1;rounded=0;" parent="1" edge="1">
          <mxGeometry width="50" height="50" relative="1" as="geometry">
            <mxPoint x="860" y="600" as="sourcePoint" />
            <mxPoint x="860" y="580" as="targetPoint" />
          </mxGeometry>
        </mxCell>
        <mxCell id="YSHtZD45V2EuvyDfiXRb-19" value="" style="endArrow=none;html=1;rounded=0;" parent="1" source="YSHtZD45V2EuvyDfiXRb-6" edge="1">
          <mxGeometry width="50" height="50" relative="1" as="geometry">
            <mxPoint x="810" y="260" as="sourcePoint" />
            <mxPoint x="860" y="210" as="targetPoint" />
          </mxGeometry>
        </mxCell>
        <mxCell id="YSHtZD45V2EuvyDfiXRb-20" value="" style="endArrow=classic;html=1;rounded=0;entryX=0;entryY=0.5;entryDx=0;entryDy=0;" parent="1" target="YSHtZD45V2EuvyDfiXRb-15" edge="1">
          <mxGeometry width="50" height="50" relative="1" as="geometry">
            <mxPoint x="720" y="490" as="sourcePoint" />
            <mxPoint x="770" y="440" as="targetPoint" />
          </mxGeometry>
        </mxCell>
        <mxCell id="YSHtZD45V2EuvyDfiXRb-21" value="Нет" style="text;html=1;align=center;verticalAlign=middle;whiteSpace=wrap;rounded=0;" parent="1" vertex="1">
          <mxGeometry x="960" y="320" width="60" height="30" as="geometry" />
        </mxCell>
        <mxCell id="YSHtZD45V2EuvyDfiXRb-22" value="Нет" style="text;html=1;align=center;verticalAlign=middle;whiteSpace=wrap;rounded=0;" parent="1" vertex="1">
          <mxGeometry x="960" y="230" width="60" height="30" as="geometry" />
        </mxCell>
        <mxCell id="YSHtZD45V2EuvyDfiXRb-23" value="Нет" style="text;html=1;align=center;verticalAlign=middle;whiteSpace=wrap;rounded=0;" parent="1" vertex="1">
          <mxGeometry x="854" y="200" width="60" height="30" as="geometry" />
        </mxCell>
        <mxCell id="YSHtZD45V2EuvyDfiXRb-24" value="Цель в круге?" style="rhombus;whiteSpace=wrap;html=1;" parent="1" vertex="1">
          <mxGeometry x="730" y="600" width="260" height="60" as="geometry" />
        </mxCell>
        <mxCell id="YSHtZD45V2EuvyDfiXRb-25" value="Цель не записана в файле&amp;nbsp;&lt;div&gt;confirmed_balistic?&lt;/div&gt;" style="rhombus;whiteSpace=wrap;html=1;" parent="1" vertex="1">
          <mxGeometry x="730" y="680" width="260" height="60" as="geometry" />
        </mxCell>
        <mxCell id="YSHtZD45V2EuvyDfiXRb-26" value="" style="endArrow=none;html=1;rounded=0;" parent="1" edge="1">
          <mxGeometry width="50" height="50" relative="1" as="geometry">
            <mxPoint x="860" y="680" as="sourcePoint" />
            <mxPoint x="860" y="660" as="targetPoint" />
          </mxGeometry>
        </mxCell>
        <mxCell id="YSHtZD45V2EuvyDfiXRb-27" value="Да" style="text;html=1;align=center;verticalAlign=middle;whiteSpace=wrap;rounded=0;" parent="1" vertex="1">
          <mxGeometry x="850" y="650" width="60" height="30" as="geometry" />
        </mxCell>
        <mxCell id="YSHtZD45V2EuvyDfiXRb-28" value="" style="endArrow=none;html=1;rounded=0;" parent="1" edge="1">
          <mxGeometry width="50" height="50" relative="1" as="geometry">
            <mxPoint x="860" y="760" as="sourcePoint" />
            <mxPoint x="860" y="740" as="targetPoint" />
          </mxGeometry>
        </mxCell>
        <mxCell id="YSHtZD45V2EuvyDfiXRb-29" value="Да(не записана)" style="text;html=1;align=center;verticalAlign=middle;whiteSpace=wrap;rounded=0;" parent="1" vertex="1">
          <mxGeometry x="840" y="730" width="150" height="30" as="geometry" />
        </mxCell>
        <mxCell id="YSHtZD45V2EuvyDfiXRb-30" value="в файле shot_Zrdn есть строка&lt;div&gt;начинающаяся с id цели?&lt;/div&gt;" style="rhombus;whiteSpace=wrap;html=1;" parent="1" vertex="1">
          <mxGeometry x="730" y="760" width="260" height="60" as="geometry" />
        </mxCell>
        <mxCell id="YSHtZD45V2EuvyDfiXRb-31" value="" style="endArrow=none;html=1;rounded=0;" parent="1" edge="1">
          <mxGeometry width="50" height="50" relative="1" as="geometry">
            <mxPoint x="860" y="840" as="sourcePoint" />
            <mxPoint x="860" y="820" as="targetPoint" />
          </mxGeometry>
        </mxCell>
        <mxCell id="YSHtZD45V2EuvyDfiXRb-32" value="Да" style="text;html=1;align=center;verticalAlign=middle;whiteSpace=wrap;rounded=0;" parent="1" vertex="1">
          <mxGeometry x="850" y="810" width="60" height="30" as="geometry" />
        </mxCell>
        <mxCell id="YSHtZD45V2EuvyDfiXRb-34" value="Отправляем сообщение, что цель не уничтожена и удаляем её из файла shot" style="rounded=0;whiteSpace=wrap;html=1;" parent="1" vertex="1">
          <mxGeometry x="770" y="840" width="180" height="50" as="geometry" />
        </mxCell>
        <mxCell id="YSHtZD45V2EuvyDfiXRb-35" value="" style="endArrow=none;html=1;rounded=0;exitX=0.5;exitY=0;exitDx=0;exitDy=0;" parent="1" source="YSHtZD45V2EuvyDfiXRb-36" edge="1">
          <mxGeometry width="50" height="50" relative="1" as="geometry">
            <mxPoint x="859.58" y="910" as="sourcePoint" />
            <mxPoint x="859.58" y="890" as="targetPoint" />
          </mxGeometry>
        </mxCell>
        <mxCell id="YSHtZD45V2EuvyDfiXRb-40" style="edgeStyle=orthogonalEdgeStyle;rounded=0;orthogonalLoop=1;jettySize=auto;html=1;exitX=0.5;exitY=1;exitDx=0;exitDy=0;entryX=0.5;entryY=0;entryDx=0;entryDy=0;endArrow=none;endFill=0;" parent="1" source="YSHtZD45V2EuvyDfiXRb-36" target="YSHtZD45V2EuvyDfiXRb-39" edge="1">
          <mxGeometry relative="1" as="geometry" />
        </mxCell>
        <mxCell id="YSHtZD45V2EuvyDfiXRb-36" value="в файле shot_Zrdn нет строки&lt;div&gt;начинающаяся с (id цели?&lt;/div&gt;" style="rhombus;whiteSpace=wrap;html=1;" parent="1" vertex="1">
          <mxGeometry x="730" y="910" width="260" height="60" as="geometry" />
        </mxCell>
        <mxCell id="YSHtZD45V2EuvyDfiXRb-37" value="" style="endArrow=classic;html=1;rounded=0;endFill=1;" parent="1" edge="1">
          <mxGeometry width="50" height="50" relative="1" as="geometry">
            <mxPoint x="990" y="790" as="sourcePoint" />
            <mxPoint x="860" y="900" as="targetPoint" />
            <Array as="points">
              <mxPoint x="1020" y="790" />
              <mxPoint x="1020" y="900" />
            </Array>
          </mxGeometry>
        </mxCell>
        <mxCell id="YSHtZD45V2EuvyDfiXRb-38" value="Нет" style="text;html=1;align=center;verticalAlign=middle;whiteSpace=wrap;rounded=0;" parent="1" vertex="1">
          <mxGeometry x="960" y="760" width="60" height="30" as="geometry" />
        </mxCell>
        <mxCell id="lpcVg-Y5zml2rviQrIin-47" style="edgeStyle=orthogonalEdgeStyle;rounded=0;orthogonalLoop=1;jettySize=auto;html=1;exitX=1;exitY=0.5;exitDx=0;exitDy=0;entryX=0;entryY=0.5;entryDx=0;entryDy=0;endArrow=none;endFill=0;" edge="1" parent="1" source="YSHtZD45V2EuvyDfiXRb-39" target="lpcVg-Y5zml2rviQrIin-46">
          <mxGeometry relative="1" as="geometry" />
        </mxCell>
        <mxCell id="YSHtZD45V2EuvyDfiXRb-39" value="Цель записана в файле&amp;nbsp;&lt;div&gt;detected_targets?&lt;/div&gt;" style="rhombus;whiteSpace=wrap;html=1;" parent="1" vertex="1">
          <mxGeometry x="730" y="990" width="260" height="60" as="geometry" />
        </mxCell>
        <mxCell id="lpcVg-Y5zml2rviQrIin-1" value="" style="endArrow=none;html=1;rounded=0;" edge="1" parent="1">
          <mxGeometry width="50" height="50" relative="1" as="geometry">
            <mxPoint x="860" y="1070" as="sourcePoint" />
            <mxPoint x="860" y="1050" as="targetPoint" />
          </mxGeometry>
        </mxCell>
        <mxCell id="lpcVg-Y5zml2rviQrIin-2" value="Да" style="text;html=1;align=center;verticalAlign=middle;whiteSpace=wrap;rounded=0;" vertex="1" parent="1">
          <mxGeometry x="850" y="1040" width="60" height="30" as="geometry" />
        </mxCell>
        <mxCell id="lpcVg-Y5zml2rviQrIin-3" value="Читаем координаты из detected_targets" style="rounded=0;whiteSpace=wrap;html=1;" vertex="1" parent="1">
          <mxGeometry x="800" y="1070" width="120" height="40" as="geometry" />
        </mxCell>
        <mxCell id="lpcVg-Y5zml2rviQrIin-4" value="" style="endArrow=none;html=1;rounded=0;" edge="1" parent="1">
          <mxGeometry width="50" height="50" relative="1" as="geometry">
            <mxPoint x="860" y="1130" as="sourcePoint" />
            <mxPoint x="860" y="1110" as="targetPoint" />
          </mxGeometry>
        </mxCell>
        <mxCell id="lpcVg-Y5zml2rviQrIin-5" value="Существует ли скорость и&amp;nbsp;&lt;div&gt;не&lt;span style=&quot;background-color: initial;&quot;&gt;&amp;nbsp;равна ли она нулю&lt;/span&gt;&lt;/div&gt;" style="rhombus;whiteSpace=wrap;html=1;" vertex="1" parent="1">
          <mxGeometry x="730" y="1130" width="260" height="60" as="geometry" />
        </mxCell>
        <mxCell id="lpcVg-Y5zml2rviQrIin-6" value="" style="endArrow=none;html=1;rounded=0;" edge="1" parent="1">
          <mxGeometry width="50" height="50" relative="1" as="geometry">
            <mxPoint x="860" y="1210" as="sourcePoint" />
            <mxPoint x="860" y="1190" as="targetPoint" />
          </mxGeometry>
        </mxCell>
        <mxCell id="lpcVg-Y5zml2rviQrIin-7" value="Да" style="text;html=1;align=center;verticalAlign=middle;whiteSpace=wrap;rounded=0;" vertex="1" parent="1">
          <mxGeometry x="854" y="1180" width="60" height="30" as="geometry" />
        </mxCell>
        <mxCell id="lpcVg-Y5zml2rviQrIin-8" value="Выдаём всю информацию о цели на кп&amp;nbsp;" style="rounded=0;whiteSpace=wrap;html=1;" vertex="1" parent="1">
          <mxGeometry x="797" y="1210" width="126" height="50" as="geometry" />
        </mxCell>
        <mxCell id="lpcVg-Y5zml2rviQrIin-15" style="edgeStyle=orthogonalEdgeStyle;rounded=0;orthogonalLoop=1;jettySize=auto;html=1;exitX=1;exitY=0.5;exitDx=0;exitDy=0;entryX=0.5;entryY=0;entryDx=0;entryDy=0;endArrow=none;endFill=0;" edge="1" parent="1" source="lpcVg-Y5zml2rviQrIin-9" target="lpcVg-Y5zml2rviQrIin-14">
          <mxGeometry relative="1" as="geometry" />
        </mxCell>
        <mxCell id="lpcVg-Y5zml2rviQrIin-9" value="Ракет больше 0 и тип&amp;nbsp;&lt;div&gt;ракета&amp;nbsp;&lt;span style=&quot;background-color: initial;&quot;&gt;или самолёт&lt;/span&gt;&lt;/div&gt;" style="rhombus;whiteSpace=wrap;html=1;" vertex="1" parent="1">
          <mxGeometry x="730" y="1280" width="260" height="60" as="geometry" />
        </mxCell>
        <mxCell id="lpcVg-Y5zml2rviQrIin-10" value="" style="endArrow=none;html=1;rounded=0;" edge="1" parent="1">
          <mxGeometry width="50" height="50" relative="1" as="geometry">
            <mxPoint x="860" y="1280" as="sourcePoint" />
            <mxPoint x="860" y="1260" as="targetPoint" />
          </mxGeometry>
        </mxCell>
        <mxCell id="lpcVg-Y5zml2rviQrIin-11" value="Да" style="text;html=1;align=center;verticalAlign=middle;whiteSpace=wrap;rounded=0;" vertex="1" parent="1">
          <mxGeometry x="850" y="1330" width="60" height="30" as="geometry" />
        </mxCell>
        <mxCell id="lpcVg-Y5zml2rviQrIin-12" value="" style="endArrow=none;html=1;rounded=0;" edge="1" parent="1">
          <mxGeometry width="50" height="50" relative="1" as="geometry">
            <mxPoint x="859.89" y="1360" as="sourcePoint" />
            <mxPoint x="859.89" y="1340" as="targetPoint" />
          </mxGeometry>
        </mxCell>
        <mxCell id="lpcVg-Y5zml2rviQrIin-13" value="Стреляем по цели и&lt;div&gt;передаём информацию на КП&lt;/div&gt;" style="rounded=0;whiteSpace=wrap;html=1;" vertex="1" parent="1">
          <mxGeometry x="797" y="1360" width="126" height="50" as="geometry" />
        </mxCell>
        <mxCell id="lpcVg-Y5zml2rviQrIin-14" value="Тип баллистическая&amp;nbsp;&lt;div&gt;ракета&amp;nbsp;&lt;span style=&quot;background-color: initial;&quot;&gt;или ракет &amp;lt;0 и тип&amp;nbsp;&lt;/span&gt;&lt;/div&gt;&lt;div&gt;&lt;span style=&quot;background-color: initial;&quot;&gt;ракета или самолёт&lt;/span&gt;&lt;/div&gt;" style="rhombus;whiteSpace=wrap;html=1;" vertex="1" parent="1">
          <mxGeometry x="930" y="1340" width="260" height="80" as="geometry" />
        </mxCell>
        <mxCell id="lpcVg-Y5zml2rviQrIin-16" value="Нет" style="text;html=1;align=center;verticalAlign=middle;whiteSpace=wrap;rounded=0;" vertex="1" parent="1">
          <mxGeometry x="960" y="1280" width="60" height="30" as="geometry" />
        </mxCell>
        <mxCell id="lpcVg-Y5zml2rviQrIin-17" value="Да" style="text;html=1;align=center;verticalAlign=middle;whiteSpace=wrap;rounded=0;" vertex="1" parent="1">
          <mxGeometry x="1050" y="1410" width="60" height="30" as="geometry" />
        </mxCell>
        <mxCell id="lpcVg-Y5zml2rviQrIin-18" value="" style="endArrow=none;html=1;rounded=0;" edge="1" parent="1">
          <mxGeometry width="50" height="50" relative="1" as="geometry">
            <mxPoint x="1059.8899999999999" y="1440" as="sourcePoint" />
            <mxPoint x="1059.8899999999999" y="1420" as="targetPoint" />
          </mxGeometry>
        </mxCell>
        <mxCell id="lpcVg-Y5zml2rviQrIin-19" value="Записываем цель в confirmed_targets" style="rounded=0;whiteSpace=wrap;html=1;" vertex="1" parent="1">
          <mxGeometry x="997" y="1440" width="126" height="50" as="geometry" />
        </mxCell>
        <mxCell id="lpcVg-Y5zml2rviQrIin-20" value="" style="endArrow=none;html=1;rounded=0;exitX=0.5;exitY=1;exitDx=0;exitDy=0;" edge="1" parent="1" source="lpcVg-Y5zml2rviQrIin-19">
          <mxGeometry width="50" height="50" relative="1" as="geometry">
            <mxPoint x="810" y="1460" as="sourcePoint" />
            <mxPoint x="860" y="1410" as="targetPoint" />
            <Array as="points">
              <mxPoint x="1060" y="1510" />
              <mxPoint x="860" y="1510" />
            </Array>
          </mxGeometry>
        </mxCell>
        <mxCell id="lpcVg-Y5zml2rviQrIin-21" value="Количество ракет 0" style="rhombus;whiteSpace=wrap;html=1;" vertex="1" parent="1">
          <mxGeometry x="830" y="1530" width="260" height="60" as="geometry" />
        </mxCell>
        <mxCell id="lpcVg-Y5zml2rviQrIin-22" value="" style="endArrow=none;html=1;rounded=0;exitX=0.5;exitY=0;exitDx=0;exitDy=0;" edge="1" parent="1" source="lpcVg-Y5zml2rviQrIin-21">
          <mxGeometry width="50" height="50" relative="1" as="geometry">
            <mxPoint x="910" y="1560" as="sourcePoint" />
            <mxPoint x="960" y="1510" as="targetPoint" />
          </mxGeometry>
        </mxCell>
        <mxCell id="lpcVg-Y5zml2rviQrIin-23" value="Да" style="text;html=1;align=center;verticalAlign=middle;whiteSpace=wrap;rounded=0;" vertex="1" parent="1">
          <mxGeometry x="950" y="1580" width="60" height="30" as="geometry" />
        </mxCell>
        <mxCell id="lpcVg-Y5zml2rviQrIin-24" value="" style="endArrow=none;html=1;rounded=0;" edge="1" parent="1">
          <mxGeometry width="50" height="50" relative="1" as="geometry">
            <mxPoint x="959.8899999999999" y="1610" as="sourcePoint" />
            <mxPoint x="959.8899999999999" y="1590" as="targetPoint" />
          </mxGeometry>
        </mxCell>
        <mxCell id="lpcVg-Y5zml2rviQrIin-25" value="Выдаём сообщение что ракеты закончились" style="rounded=0;whiteSpace=wrap;html=1;" vertex="1" parent="1">
          <mxGeometry x="897" y="1610" width="126" height="50" as="geometry" />
        </mxCell>
        <mxCell id="lpcVg-Y5zml2rviQrIin-26" value="" style="endArrow=none;html=1;rounded=0;" edge="1" parent="1">
          <mxGeometry width="50" height="50" relative="1" as="geometry">
            <mxPoint x="960" y="2010" as="sourcePoint" />
            <mxPoint x="960" y="1990" as="targetPoint" />
          </mxGeometry>
        </mxCell>
        <mxCell id="lpcVg-Y5zml2rviQrIin-27" value="Есть ли файл hello.log?" style="rhombus;whiteSpace=wrap;html=1;" vertex="1" parent="1">
          <mxGeometry x="830" y="2010" width="260" height="60" as="geometry" />
        </mxCell>
        <mxCell id="lpcVg-Y5zml2rviQrIin-28" value="" style="endArrow=none;html=1;rounded=0;" edge="1" parent="1">
          <mxGeometry width="50" height="50" relative="1" as="geometry">
            <mxPoint x="960" y="2090" as="sourcePoint" />
            <mxPoint x="960" y="2070" as="targetPoint" />
          </mxGeometry>
        </mxCell>
        <mxCell id="lpcVg-Y5zml2rviQrIin-29" value="Да" style="text;html=1;align=center;verticalAlign=middle;whiteSpace=wrap;rounded=0;" vertex="1" parent="1">
          <mxGeometry x="945" y="2060" width="60" height="30" as="geometry" />
        </mxCell>
        <mxCell id="lpcVg-Y5zml2rviQrIin-30" value="Отправляем ответ на КП" style="rounded=0;whiteSpace=wrap;html=1;" vertex="1" parent="1">
          <mxGeometry x="897" y="2090" width="126" height="50" as="geometry" />
        </mxCell>
        <mxCell id="lpcVg-Y5zml2rviQrIin-31" value="" style="endArrow=none;html=1;rounded=0;" edge="1" parent="1">
          <mxGeometry width="50" height="50" relative="1" as="geometry">
            <mxPoint x="1090" y="2040" as="sourcePoint" />
            <mxPoint x="1110" y="2040" as="targetPoint" />
          </mxGeometry>
        </mxCell>
        <mxCell id="lpcVg-Y5zml2rviQrIin-32" value="" style="endArrow=none;html=1;rounded=0;" edge="1" parent="1">
          <mxGeometry width="50" height="50" relative="1" as="geometry">
            <mxPoint x="1110" y="2150" as="sourcePoint" />
            <mxPoint x="1110" y="2040" as="targetPoint" />
          </mxGeometry>
        </mxCell>
        <mxCell id="lpcVg-Y5zml2rviQrIin-33" value="Нет" style="text;html=1;align=center;verticalAlign=middle;whiteSpace=wrap;rounded=0;" vertex="1" parent="1">
          <mxGeometry x="1060" y="2010" width="60" height="30" as="geometry" />
        </mxCell>
        <mxCell id="lpcVg-Y5zml2rviQrIin-34" value="" style="endArrow=none;html=1;rounded=0;" edge="1" parent="1">
          <mxGeometry width="50" height="50" relative="1" as="geometry">
            <mxPoint x="960" y="2150" as="sourcePoint" />
            <mxPoint x="960" y="2140" as="targetPoint" />
          </mxGeometry>
        </mxCell>
        <mxCell id="lpcVg-Y5zml2rviQrIin-35" value="" style="endArrow=none;html=1;rounded=0;entryX=1;entryY=0.5;entryDx=0;entryDy=0;exitX=0.5;exitY=1;exitDx=0;exitDy=0;" edge="1" parent="1" source="lpcVg-Y5zml2rviQrIin-25" target="lpcVg-Y5zml2rviQrIin-21">
          <mxGeometry width="50" height="50" relative="1" as="geometry">
            <mxPoint x="980" y="1630" as="sourcePoint" />
            <mxPoint x="1030" y="1580" as="targetPoint" />
            <Array as="points">
              <mxPoint x="960" y="1680" />
              <mxPoint x="1120" y="1680" />
              <mxPoint x="1120" y="1560" />
            </Array>
          </mxGeometry>
        </mxCell>
        <mxCell id="lpcVg-Y5zml2rviQrIin-36" value="Нет" style="text;html=1;align=center;verticalAlign=middle;whiteSpace=wrap;rounded=0;" vertex="1" parent="1">
          <mxGeometry x="1063" y="1530" width="60" height="30" as="geometry" />
        </mxCell>
        <mxCell id="lpcVg-Y5zml2rviQrIin-42" value="" style="endArrow=none;html=1;rounded=0;" edge="1" parent="1">
          <mxGeometry width="50" height="50" relative="1" as="geometry">
            <mxPoint x="990" y="1160" as="sourcePoint" />
            <mxPoint x="1120" y="1680" as="targetPoint" />
            <Array as="points">
              <mxPoint x="1220" y="1160" />
              <mxPoint x="1220" y="1680" />
            </Array>
          </mxGeometry>
        </mxCell>
        <mxCell id="lpcVg-Y5zml2rviQrIin-43" value="" style="endArrow=none;html=1;rounded=0;" edge="1" parent="1">
          <mxGeometry width="50" height="50" relative="1" as="geometry">
            <mxPoint x="1191" y="1380" as="sourcePoint" />
            <mxPoint x="1220" y="1380" as="targetPoint" />
          </mxGeometry>
        </mxCell>
        <mxCell id="lpcVg-Y5zml2rviQrIin-44" value="Нет" style="text;html=1;align=center;verticalAlign=middle;whiteSpace=wrap;rounded=0;" vertex="1" parent="1">
          <mxGeometry x="1160" y="1350" width="60" height="30" as="geometry" />
        </mxCell>
        <mxCell id="lpcVg-Y5zml2rviQrIin-45" value="Да" style="text;html=1;align=center;verticalAlign=middle;whiteSpace=wrap;rounded=0;" vertex="1" parent="1">
          <mxGeometry x="850" y="960" width="60" height="30" as="geometry" />
        </mxCell>
        <mxCell id="lpcVg-Y5zml2rviQrIin-46" value="Записываем информацию в файл detected_targets" style="rounded=0;whiteSpace=wrap;html=1;" vertex="1" parent="1">
          <mxGeometry x="1033" y="995" width="127" height="50" as="geometry" />
        </mxCell>
        <mxCell id="lpcVg-Y5zml2rviQrIin-48" value="Нет" style="text;html=1;align=center;verticalAlign=middle;whiteSpace=wrap;rounded=0;" vertex="1" parent="1">
          <mxGeometry x="963" y="990" width="60" height="30" as="geometry" />
        </mxCell>
        <mxCell id="lpcVg-Y5zml2rviQrIin-49" value="" style="endArrow=none;html=1;rounded=0;entryX=1;entryY=0.5;entryDx=0;entryDy=0;" edge="1" parent="1" target="lpcVg-Y5zml2rviQrIin-46">
          <mxGeometry width="50" height="50" relative="1" as="geometry">
            <mxPoint x="1220" y="1160" as="sourcePoint" />
            <mxPoint x="1200" y="1030" as="targetPoint" />
            <Array as="points">
              <mxPoint x="1220" y="1020" />
            </Array>
          </mxGeometry>
        </mxCell>
        <mxCell id="lpcVg-Y5zml2rviQrIin-50" value="" style="endArrow=none;html=1;rounded=0;" edge="1" parent="1">
          <mxGeometry width="50" height="50" relative="1" as="geometry">
            <mxPoint x="990" y="940" as="sourcePoint" />
            <mxPoint x="1220" y="1020" as="targetPoint" />
            <Array as="points">
              <mxPoint x="1220" y="940" />
            </Array>
          </mxGeometry>
        </mxCell>
        <mxCell id="lpcVg-Y5zml2rviQrIin-51" value="" style="endArrow=none;html=1;rounded=0;" edge="1" parent="1">
          <mxGeometry width="50" height="50" relative="1" as="geometry">
            <mxPoint x="990" y="710" as="sourcePoint" />
            <mxPoint x="1220" y="940" as="targetPoint" />
            <Array as="points">
              <mxPoint x="1220" y="710" />
            </Array>
          </mxGeometry>
        </mxCell>
        <mxCell id="lpcVg-Y5zml2rviQrIin-52" value="" style="endArrow=none;html=1;rounded=0;" edge="1" parent="1">
          <mxGeometry width="50" height="50" relative="1" as="geometry">
            <mxPoint x="990" y="630" as="sourcePoint" />
            <mxPoint x="1220" y="710" as="targetPoint" />
            <Array as="points">
              <mxPoint x="1220" y="630" />
            </Array>
          </mxGeometry>
        </mxCell>
        <mxCell id="lpcVg-Y5zml2rviQrIin-53" value="Нет" style="text;html=1;align=center;verticalAlign=middle;whiteSpace=wrap;rounded=0;" vertex="1" parent="1">
          <mxGeometry x="963" y="680" width="60" height="30" as="geometry" />
        </mxCell>
        <mxCell id="lpcVg-Y5zml2rviQrIin-54" value="Нет" style="text;html=1;align=center;verticalAlign=middle;whiteSpace=wrap;rounded=0;" vertex="1" parent="1">
          <mxGeometry x="963" y="600" width="60" height="30" as="geometry" />
        </mxCell>
        <mxCell id="lpcVg-Y5zml2rviQrIin-55" value="" style="endArrow=none;html=1;rounded=0;" edge="1" parent="1">
          <mxGeometry width="50" height="50" relative="1" as="geometry">
            <mxPoint x="720" y="490" as="sourcePoint" />
            <mxPoint x="960" y="1680" as="targetPoint" />
            <Array as="points">
              <mxPoint x="720" y="1680" />
            </Array>
          </mxGeometry>
        </mxCell>
        <mxCell id="lpcVg-Y5zml2rviQrIin-56" value="" style="endArrow=none;html=1;rounded=0;" edge="1" parent="1">
          <mxGeometry width="50" height="50" relative="1" as="geometry">
            <mxPoint x="940" y="490" as="sourcePoint" />
            <mxPoint x="960" y="1700" as="targetPoint" />
            <Array as="points">
              <mxPoint x="1240" y="490" />
              <mxPoint x="1240" y="1700" />
            </Array>
          </mxGeometry>
        </mxCell>
        <mxCell id="lpcVg-Y5zml2rviQrIin-57" value="" style="endArrow=none;html=1;rounded=0;" edge="1" parent="1">
          <mxGeometry width="50" height="50" relative="1" as="geometry">
            <mxPoint x="960" y="1730" as="sourcePoint" />
            <mxPoint x="960" y="1700" as="targetPoint" />
          </mxGeometry>
        </mxCell>
        <mxCell id="lpcVg-Y5zml2rviQrIin-58" value="в файле shot_targets есть&lt;div&gt;строка начинающаяся не с (&lt;/div&gt;" style="rhombus;whiteSpace=wrap;html=1;" vertex="1" parent="1">
          <mxGeometry x="830" y="1730" width="260" height="60" as="geometry" />
        </mxCell>
        <mxCell id="lpcVg-Y5zml2rviQrIin-59" value="" style="endArrow=none;html=1;rounded=0;" edge="1" parent="1">
          <mxGeometry width="50" height="50" relative="1" as="geometry">
            <mxPoint x="960" y="1810" as="sourcePoint" />
            <mxPoint x="960" y="1790" as="targetPoint" />
          </mxGeometry>
        </mxCell>
        <mxCell id="lpcVg-Y5zml2rviQrIin-60" value="Да" style="text;html=1;align=center;verticalAlign=middle;whiteSpace=wrap;rounded=0;" vertex="1" parent="1">
          <mxGeometry x="950" y="1780" width="60" height="30" as="geometry" />
        </mxCell>
        <mxCell id="lpcVg-Y5zml2rviQrIin-61" value="Выдаём сообщение что цель уничтожена" style="rounded=0;whiteSpace=wrap;html=1;" vertex="1" parent="1">
          <mxGeometry x="897" y="1810" width="126" height="50" as="geometry" />
        </mxCell>
        <mxCell id="lpcVg-Y5zml2rviQrIin-62" value="" style="endArrow=none;html=1;rounded=0;startArrow=classic;startFill=1;" edge="1" parent="1">
          <mxGeometry width="50" height="50" relative="1" as="geometry">
            <mxPoint x="960" y="1710" as="sourcePoint" />
            <mxPoint x="960" y="1860" as="targetPoint" />
            <Array as="points">
              <mxPoint x="810" y="1710" />
              <mxPoint x="810" y="1880" />
              <mxPoint x="960" y="1880" />
            </Array>
          </mxGeometry>
        </mxCell>
        <mxCell id="lpcVg-Y5zml2rviQrIin-63" value="" style="endArrow=none;html=1;rounded=0;" edge="1" parent="1">
          <mxGeometry width="50" height="50" relative="1" as="geometry">
            <mxPoint x="960" y="1920" as="sourcePoint" />
            <mxPoint x="1090" y="1760" as="targetPoint" />
            <Array as="points">
              <mxPoint x="960" y="1900" />
              <mxPoint x="1110" y="1900" />
              <mxPoint x="1110" y="1760" />
            </Array>
          </mxGeometry>
        </mxCell>
        <mxCell id="lpcVg-Y5zml2rviQrIin-64" value="Нет" style="text;html=1;align=center;verticalAlign=middle;whiteSpace=wrap;rounded=0;" vertex="1" parent="1">
          <mxGeometry x="1063" y="1730" width="60" height="30" as="geometry" />
        </mxCell>
        <mxCell id="lpcVg-Y5zml2rviQrIin-66" value="Удаляем из файла shot_targets все записи не начинающиеся с (, удаляем из всех строчек с ( первую (" style="rounded=0;whiteSpace=wrap;html=1;" vertex="1" parent="1">
          <mxGeometry x="868.5" y="1920" width="183" height="70" as="geometry" />
        </mxCell>
        <mxCell id="lpcVg-Y5zml2rviQrIin-67" value="" style="endArrow=none;html=1;rounded=0;endFill=0;startArrow=classic;startFill=1;" edge="1" parent="1">
          <mxGeometry width="50" height="50" relative="1" as="geometry">
            <mxPoint x="860" y="300" as="sourcePoint" />
            <mxPoint x="1110" y="2150" as="targetPoint" />
            <Array as="points">
              <mxPoint x="700" y="300" />
              <mxPoint x="690" y="2150" />
            </Array>
          </mxGeometry>
        </mxCell>
        <mxCell id="lpcVg-Y5zml2rviQrIin-68" value="" style="endArrow=none;html=1;rounded=0;" edge="1" parent="1">
          <mxGeometry width="50" height="50" relative="1" as="geometry">
            <mxPoint x="990" y="350" as="sourcePoint" />
            <mxPoint x="1260" y="350" as="targetPoint" />
          </mxGeometry>
        </mxCell>
        <mxCell id="lpcVg-Y5zml2rviQrIin-69" value="" style="endArrow=none;html=1;rounded=0;" edge="1" parent="1">
          <mxGeometry width="50" height="50" relative="1" as="geometry">
            <mxPoint x="990" y="260" as="sourcePoint" />
            <mxPoint x="1260" y="260" as="targetPoint" />
          </mxGeometry>
        </mxCell>
        <mxCell id="lpcVg-Y5zml2rviQrIin-70" value="" style="endArrow=none;html=1;rounded=0;" edge="1" parent="1">
          <mxGeometry width="50" height="50" relative="1" as="geometry">
            <mxPoint x="990" y="180" as="sourcePoint" />
            <mxPoint x="960" y="2190" as="targetPoint" />
            <Array as="points">
              <mxPoint x="1260" y="180" />
              <mxPoint x="1260" y="2172" />
              <mxPoint x="960" y="2172" />
            </Array>
          </mxGeometry>
        </mxCell>
        <mxCell id="lpcVg-Y5zml2rviQrIin-71" value="Конец" style="ellipse;whiteSpace=wrap;html=1;" vertex="1" parent="1">
          <mxGeometry x="890" y="2190" width="140" height="50" as="geometry" />
        </mxCell>
        <mxCell id="lpcVg-Y5zml2rviQrIin-72" value="Нет" style="text;html=1;align=center;verticalAlign=middle;whiteSpace=wrap;rounded=0;" vertex="1" parent="1">
          <mxGeometry x="963" y="1130" width="60" height="30" as="geometry" />
        </mxCell>
        <mxCell id="lpcVg-Y5zml2rviQrIin-73" value="Нет" style="text;html=1;align=center;verticalAlign=middle;whiteSpace=wrap;rounded=0;" vertex="1" parent="1">
          <mxGeometry x="963" y="910" width="60" height="30" as="geometry" />
        </mxCell>
        <mxCell id="lpcVg-Y5zml2rviQrIin-74" value="&lt;font style=&quot;font-size: 21px;&quot;&gt;КП&lt;/font&gt;" style="text;html=1;align=center;verticalAlign=middle;whiteSpace=wrap;rounded=0;" vertex="1" parent="1">
          <mxGeometry x="1540" y="20" width="60" height="30" as="geometry" />
        </mxCell>
        <mxCell id="lpcVg-Y5zml2rviQrIin-75" value="Начало" style="ellipse;whiteSpace=wrap;html=1;" vertex="1" parent="1">
          <mxGeometry x="1500" y="60" width="140" height="50" as="geometry" />
        </mxCell>
        <mxCell id="lpcVg-Y5zml2rviQrIin-76" value="" style="endArrow=none;html=1;rounded=0;exitX=0.5;exitY=0;exitDx=0;exitDy=0;" edge="1" parent="1">
          <mxGeometry width="50" height="50" relative="1" as="geometry">
            <mxPoint x="1570" y="130" as="sourcePoint" />
            <mxPoint x="1570" y="110" as="targetPoint" />
          </mxGeometry>
        </mxCell>
        <mxCell id="lpcVg-Y5zml2rviQrIin-77" value="Запущен ли уже скрипт?" style="rhombus;whiteSpace=wrap;html=1;" vertex="1" parent="1">
          <mxGeometry x="1440" y="130" width="260" height="60" as="geometry" />
        </mxCell>
        <mxCell id="lpcVg-Y5zml2rviQrIin-78" value="" style="endArrow=none;html=1;rounded=0;exitX=0.5;exitY=0;exitDx=0;exitDy=0;" edge="1" parent="1" source="lpcVg-Y5zml2rviQrIin-77">
          <mxGeometry width="50" height="50" relative="1" as="geometry">
            <mxPoint x="1520" y="160" as="sourcePoint" />
            <mxPoint x="1570" y="110" as="targetPoint" />
          </mxGeometry>
        </mxCell>
        <mxCell id="lpcVg-Y5zml2rviQrIin-79" value="Да" style="text;html=1;align=center;verticalAlign=middle;whiteSpace=wrap;rounded=0;" vertex="1" parent="1">
          <mxGeometry x="1673" y="130" width="60" height="30" as="geometry" />
        </mxCell>
        <mxCell id="lpcVg-Y5zml2rviQrIin-80" value="" style="endArrow=none;html=1;rounded=0;" edge="1" parent="1">
          <mxGeometry width="50" height="50" relative="1" as="geometry">
            <mxPoint x="1570" y="210" as="sourcePoint" />
            <mxPoint x="1570" y="190" as="targetPoint" />
          </mxGeometry>
        </mxCell>
        <mxCell id="lpcVg-Y5zml2rviQrIin-81" value="Нет" style="text;html=1;align=center;verticalAlign=middle;whiteSpace=wrap;rounded=0;" vertex="1" parent="1">
          <mxGeometry x="1564" y="180" width="60" height="30" as="geometry" />
        </mxCell>
        <mxCell id="lpcVg-Y5zml2rviQrIin-83" value="Создание БД" style="rounded=0;whiteSpace=wrap;html=1;" vertex="1" parent="1">
          <mxGeometry x="1495" y="210" width="150" height="40" as="geometry" />
        </mxCell>
        <mxCell id="lpcVg-Y5zml2rviQrIin-84" value="пока true" style="rhombus;whiteSpace=wrap;html=1;" vertex="1" parent="1">
          <mxGeometry x="1440" y="280" width="260" height="60" as="geometry" />
        </mxCell>
        <mxCell id="lpcVg-Y5zml2rviQrIin-85" value="" style="endArrow=none;html=1;rounded=0;" edge="1" parent="1">
          <mxGeometry width="50" height="50" relative="1" as="geometry">
            <mxPoint x="1570" y="360" as="sourcePoint" />
            <mxPoint x="1570" y="340" as="targetPoint" />
          </mxGeometry>
        </mxCell>
        <mxCell id="lpcVg-Y5zml2rviQrIin-86" value="Да" style="text;html=1;align=center;verticalAlign=middle;whiteSpace=wrap;rounded=0;" vertex="1" parent="1">
          <mxGeometry x="1564" y="330" width="60" height="30" as="geometry" />
        </mxCell>
        <mxCell id="lpcVg-Y5zml2rviQrIin-87" value="Нет" style="text;html=1;align=center;verticalAlign=middle;whiteSpace=wrap;rounded=0;" vertex="1" parent="1">
          <mxGeometry x="1670" y="280" width="60" height="30" as="geometry" />
        </mxCell>
        <mxCell id="lpcVg-Y5zml2rviQrIin-88" value="" style="endArrow=none;html=1;rounded=0;exitX=0.5;exitY=0;exitDx=0;exitDy=0;entryX=0.5;entryY=1;entryDx=0;entryDy=0;" edge="1" parent="1" target="lpcVg-Y5zml2rviQrIin-83">
          <mxGeometry width="50" height="50" relative="1" as="geometry">
            <mxPoint x="1569.8" y="280" as="sourcePoint" />
            <mxPoint x="1569.8" y="260" as="targetPoint" />
          </mxGeometry>
        </mxCell>
        <mxCell id="lpcVg-Y5zml2rviQrIin-89" value="Для каждого файла из&lt;div&gt;папки messages&lt;/div&gt;" style="shape=hexagon;perimeter=hexagonPerimeter2;whiteSpace=wrap;html=1;fixedSize=1;" vertex="1" parent="1">
          <mxGeometry x="1490" y="360" width="160" height="60" as="geometry" />
        </mxCell>
        <mxCell id="lpcVg-Y5zml2rviQrIin-90" value="Записываем информацию в лог журнал и в БД" style="rounded=0;whiteSpace=wrap;html=1;" vertex="1" parent="1">
          <mxGeometry x="1495" y="440" width="150" height="40" as="geometry" />
        </mxCell>
        <mxCell id="lpcVg-Y5zml2rviQrIin-91" value="" style="endArrow=none;html=1;rounded=0;exitX=0.5;exitY=0;exitDx=0;exitDy=0;" edge="1" parent="1" source="lpcVg-Y5zml2rviQrIin-90">
          <mxGeometry width="50" height="50" relative="1" as="geometry">
            <mxPoint x="1520" y="470" as="sourcePoint" />
            <mxPoint x="1570" y="420" as="targetPoint" />
          </mxGeometry>
        </mxCell>
        <mxCell id="lpcVg-Y5zml2rviQrIin-92" value="" style="endArrow=none;html=1;rounded=0;exitX=0;exitY=0.5;exitDx=0;exitDy=0;endFill=0;startArrow=classic;startFill=1;" edge="1" parent="1" source="lpcVg-Y5zml2rviQrIin-89">
          <mxGeometry width="50" height="50" relative="1" as="geometry">
            <mxPoint x="1520" y="530" as="sourcePoint" />
            <mxPoint x="1570" y="480" as="targetPoint" />
            <Array as="points">
              <mxPoint x="1470" y="390" />
              <mxPoint x="1470" y="500" />
              <mxPoint x="1570" y="500" />
            </Array>
          </mxGeometry>
        </mxCell>
        <mxCell id="lpcVg-Y5zml2rviQrIin-93" value="" style="endArrow=none;html=1;rounded=0;" edge="1" parent="1">
          <mxGeometry width="50" height="50" relative="1" as="geometry">
            <mxPoint x="1650" y="390" as="sourcePoint" />
            <mxPoint x="1570" y="530" as="targetPoint" />
            <Array as="points">
              <mxPoint x="1680" y="390" />
              <mxPoint x="1680" y="510" />
              <mxPoint x="1570" y="510" />
            </Array>
          </mxGeometry>
        </mxCell>
        <mxCell id="lpcVg-Y5zml2rviQrIin-94" value="Для каждого файла из&lt;div&gt;папки alive&lt;/div&gt;" style="shape=hexagon;perimeter=hexagonPerimeter2;whiteSpace=wrap;html=1;fixedSize=1;" vertex="1" parent="1">
          <mxGeometry x="1490" y="530" width="160" height="60" as="geometry" />
        </mxCell>
        <mxCell id="lpcVg-Y5zml2rviQrIin-95" value="Проверяем изменение состояния и если изменено то выводим сообщение" style="rounded=0;whiteSpace=wrap;html=1;" vertex="1" parent="1">
          <mxGeometry x="1482.5" y="610" width="175" height="60" as="geometry" />
        </mxCell>
        <mxCell id="lpcVg-Y5zml2rviQrIin-96" value="" style="endArrow=none;html=1;rounded=0;exitX=0.5;exitY=0;exitDx=0;exitDy=0;" edge="1" parent="1" source="lpcVg-Y5zml2rviQrIin-95">
          <mxGeometry width="50" height="50" relative="1" as="geometry">
            <mxPoint x="1520" y="640" as="sourcePoint" />
            <mxPoint x="1570" y="590" as="targetPoint" />
          </mxGeometry>
        </mxCell>
        <mxCell id="lpcVg-Y5zml2rviQrIin-97" value="" style="endArrow=classic;html=1;rounded=0;exitX=0.5;exitY=1;exitDx=0;exitDy=0;startArrow=none;startFill=0;endFill=1;" edge="1" parent="1" source="lpcVg-Y5zml2rviQrIin-95">
          <mxGeometry width="50" height="50" relative="1" as="geometry">
            <mxPoint x="1440" y="610" as="sourcePoint" />
            <mxPoint x="1490" y="560" as="targetPoint" />
            <Array as="points">
              <mxPoint x="1570" y="690" />
              <mxPoint x="1460" y="690" />
              <mxPoint x="1460" y="560" />
            </Array>
          </mxGeometry>
        </mxCell>
        <mxCell id="lpcVg-Y5zml2rviQrIin-98" value="" style="endArrow=none;html=1;rounded=0;" edge="1" parent="1">
          <mxGeometry width="50" height="50" relative="1" as="geometry">
            <mxPoint x="1650" y="560" as="sourcePoint" />
            <mxPoint x="1570" y="720" as="targetPoint" />
            <Array as="points">
              <mxPoint x="1680" y="560" />
              <mxPoint x="1680" y="700" />
              <mxPoint x="1570" y="700" />
            </Array>
          </mxGeometry>
        </mxCell>
        <mxCell id="lpcVg-Y5zml2rviQrIin-99" value="с момента последней отправки&lt;div&gt;сообщений прошло 30&lt;/div&gt;&lt;div&gt;итераций&lt;/div&gt;" style="rhombus;whiteSpace=wrap;html=1;" vertex="1" parent="1">
          <mxGeometry x="1420" y="780" width="300" height="80" as="geometry" />
        </mxCell>
        <mxCell id="lpcVg-Y5zml2rviQrIin-100" value="Проверяем пришёл ли ответ от всех станций" style="rounded=0;whiteSpace=wrap;html=1;" vertex="1" parent="1">
          <mxGeometry x="1495" y="720" width="150" height="40" as="geometry" />
        </mxCell>
        <mxCell id="lpcVg-Y5zml2rviQrIin-101" value="" style="endArrow=none;html=1;rounded=0;exitX=0.5;exitY=0;exitDx=0;exitDy=0;" edge="1" parent="1" source="lpcVg-Y5zml2rviQrIin-99">
          <mxGeometry width="50" height="50" relative="1" as="geometry">
            <mxPoint x="1520" y="810" as="sourcePoint" />
            <mxPoint x="1570" y="760" as="targetPoint" />
          </mxGeometry>
        </mxCell>
        <mxCell id="lpcVg-Y5zml2rviQrIin-102" value="" style="endArrow=none;html=1;rounded=0;" edge="1" parent="1">
          <mxGeometry width="50" height="50" relative="1" as="geometry">
            <mxPoint x="1570" y="880" as="sourcePoint" />
            <mxPoint x="1570" y="860" as="targetPoint" />
          </mxGeometry>
        </mxCell>
        <mxCell id="lpcVg-Y5zml2rviQrIin-103" value="Отправляем сообщения на станции" style="rounded=0;whiteSpace=wrap;html=1;" vertex="1" parent="1">
          <mxGeometry x="1495" y="880" width="150" height="40" as="geometry" />
        </mxCell>
        <mxCell id="lpcVg-Y5zml2rviQrIin-105" value="" style="endArrow=none;html=1;rounded=0;" edge="1" parent="1">
          <mxGeometry width="50" height="50" relative="1" as="geometry">
            <mxPoint x="1720" y="820" as="sourcePoint" />
            <mxPoint x="1570" y="260" as="targetPoint" />
            <Array as="points">
              <mxPoint x="1760" y="820" />
              <mxPoint x="1760" y="940" />
              <mxPoint x="1380" y="940" />
              <mxPoint x="1380" y="260" />
            </Array>
          </mxGeometry>
        </mxCell>
        <mxCell id="lpcVg-Y5zml2rviQrIin-106" value="нет" style="text;html=1;align=center;verticalAlign=middle;whiteSpace=wrap;rounded=0;" vertex="1" parent="1">
          <mxGeometry x="1700" y="790" width="60" height="30" as="geometry" />
        </mxCell>
        <mxCell id="lpcVg-Y5zml2rviQrIin-107" value="" style="endArrow=none;html=1;rounded=0;" edge="1" parent="1">
          <mxGeometry width="50" height="50" relative="1" as="geometry">
            <mxPoint x="1570" y="940" as="sourcePoint" />
            <mxPoint x="1570" y="920" as="targetPoint" />
          </mxGeometry>
        </mxCell>
        <mxCell id="lpcVg-Y5zml2rviQrIin-108" value="да" style="text;html=1;align=center;verticalAlign=middle;whiteSpace=wrap;rounded=0;" vertex="1" parent="1">
          <mxGeometry x="1560" y="850" width="60" height="30" as="geometry" />
        </mxCell>
        <mxCell id="lpcVg-Y5zml2rviQrIin-109" value="" style="endArrow=none;html=1;rounded=0;" edge="1" parent="1">
          <mxGeometry width="50" height="50" relative="1" as="geometry">
            <mxPoint x="1700" y="310" as="sourcePoint" />
            <mxPoint x="1770" y="310" as="targetPoint" />
          </mxGeometry>
        </mxCell>
        <mxCell id="lpcVg-Y5zml2rviQrIin-110" value="" style="endArrow=none;html=1;rounded=0;" edge="1" parent="1">
          <mxGeometry width="50" height="50" relative="1" as="geometry">
            <mxPoint x="1700" y="160" as="sourcePoint" />
            <mxPoint x="1770" y="160" as="targetPoint" />
          </mxGeometry>
        </mxCell>
        <mxCell id="lpcVg-Y5zml2rviQrIin-111" value="" style="endArrow=none;html=1;rounded=0;" edge="1" parent="1">
          <mxGeometry width="50" height="50" relative="1" as="geometry">
            <mxPoint x="1770" y="961.5999755859375" as="sourcePoint" />
            <mxPoint x="1770" y="160" as="targetPoint" />
          </mxGeometry>
        </mxCell>
        <mxCell id="lpcVg-Y5zml2rviQrIin-112" value="" style="endArrow=none;html=1;rounded=0;" edge="1" parent="1">
          <mxGeometry width="50" height="50" relative="1" as="geometry">
            <mxPoint x="1570" y="980" as="sourcePoint" />
            <mxPoint x="1770" y="960" as="targetPoint" />
            <Array as="points">
              <mxPoint x="1570" y="960" />
            </Array>
          </mxGeometry>
        </mxCell>
        <mxCell id="lpcVg-Y5zml2rviQrIin-113" value="Конец" style="ellipse;whiteSpace=wrap;html=1;" vertex="1" parent="1">
          <mxGeometry x="1500" y="980" width="140" height="50" as="geometry" />
        </mxCell>
      </root>
    </mxGraphModel>
  </diagram>
</mxfile>
